<mxfile host="Electron" modified="2023-06-11T19:33:39.246Z" agent="Mozilla/5.0 (Windows NT 10.0; Win64; x64) AppleWebKit/537.36 (KHTML, like Gecko) draw.io/21.3.7 Chrome/112.0.5615.204 Electron/24.5.0 Safari/537.36" etag="Md610FHeALa_cH1OMpNN" version="21.3.7" type="device">
  <diagram name="Página-1" id="HvRHD_nNtKpn9avQcy1T">
    <mxGraphModel dx="2944" dy="1921" grid="1" gridSize="10" guides="1" tooltips="1" connect="1" arrows="1" fold="1" page="1" pageScale="1" pageWidth="827" pageHeight="1169" math="0" shadow="0">
      <root>
        <mxCell id="0" />
        <mxCell id="1" parent="0" />
        <mxCell id="U0R04-IFYi-248eve1IH-3" style="rounded=0;orthogonalLoop=1;jettySize=auto;html=1;strokeColor=default;endArrow=none;endFill=0;endSize=6;strokeWidth=2;exitX=0.875;exitY=0.5;exitDx=0;exitDy=0;exitPerimeter=0;entryX=0;entryY=0.5;entryDx=0;entryDy=0;entryPerimeter=0;" parent="1" source="U0R04-IFYi-248eve1IH-2" target="LC1GmWus9uCB8fRLl5EC-10" edge="1">
          <mxGeometry relative="1" as="geometry">
            <mxPoint x="-503.8286000000003" y="422.12039999999945" as="targetPoint" />
          </mxGeometry>
        </mxCell>
        <mxCell id="U0R04-IFYi-248eve1IH-4" style="rounded=0;orthogonalLoop=1;jettySize=auto;html=1;strokeColor=default;endArrow=none;endFill=0;strokeWidth=2;exitX=0.96;exitY=0.7;exitDx=0;exitDy=0;exitPerimeter=0;entryX=0.16;entryY=0.23;entryDx=0;entryDy=0;entryPerimeter=0;" parent="1" source="U0R04-IFYi-248eve1IH-5" target="LC1GmWus9uCB8fRLl5EC-10" edge="1">
          <mxGeometry relative="1" as="geometry">
            <mxPoint x="-503.8286000000003" y="450.3707999999998" as="targetPoint" />
            <Array as="points">
              <mxPoint x="-640" y="430" />
            </Array>
          </mxGeometry>
        </mxCell>
        <mxCell id="U0R04-IFYi-248eve1IH-6" style="rounded=0;orthogonalLoop=1;jettySize=auto;html=1;strokeColor=default;endArrow=none;endFill=0;strokeWidth=2;exitX=0.625;exitY=0.2;exitDx=0;exitDy=0;exitPerimeter=0;" parent="1" source="U0R04-IFYi-248eve1IH-7" target="LC1GmWus9uCB8fRLl5EC-10" edge="1">
          <mxGeometry relative="1" as="geometry">
            <mxPoint x="-503.4757999999997" y="478.2635999999999" as="targetPoint" />
          </mxGeometry>
        </mxCell>
        <mxCell id="U0R04-IFYi-248eve1IH-2" value="Magatzem&lt;br&gt;&lt;font color=&quot;#0000ff&quot;&gt;VLAN 13&lt;br&gt;[8/2]&lt;/font&gt;" style="ellipse;shape=cloud;whiteSpace=wrap;html=1;rounded=0;shadow=0;comic=0;strokeWidth=2;fontFamily=Verdana;fontSize=12;" parent="1" vertex="1">
          <mxGeometry x="-827" y="453.4" width="130" height="80" as="geometry" />
        </mxCell>
        <mxCell id="U0R04-IFYi-248eve1IH-5" value="Climatització&lt;br&gt;&lt;font color=&quot;#0000ff&quot;&gt;VLAN 18&lt;br&gt;[8/3]&lt;/font&gt;" style="ellipse;shape=cloud;whiteSpace=wrap;html=1;rounded=0;shadow=0;comic=0;strokeWidth=2;fontFamily=Verdana;fontSize=12;" parent="1" vertex="1">
          <mxGeometry x="-814" y="354.95" width="138" height="83.2" as="geometry" />
        </mxCell>
        <mxCell id="U0R04-IFYi-248eve1IH-7" value="Seguretat&lt;br&gt;&lt;font color=&quot;#0000ff&quot;&gt;VLAN 19&lt;br&gt;[8/4-7]&lt;/font&gt;" style="ellipse;shape=cloud;whiteSpace=wrap;html=1;rounded=0;shadow=0;comic=0;strokeWidth=2;fontFamily=Verdana;fontSize=12;" parent="1" vertex="1">
          <mxGeometry x="-735" y="533.3999999999997" width="120" height="80" as="geometry" />
        </mxCell>
        <mxCell id="LC1GmWus9uCB8fRLl5EC-10" value="&lt;font style=&quot;font-size: 17px;&quot;&gt;&lt;b&gt;R-C.A.&lt;/b&gt;&lt;/font&gt;" style="shape=mxgraph.cisco.switches.workgroup_switch;sketch=0;html=1;pointerEvents=1;dashed=0;fillColor=#036897;strokeColor=#ffffff;strokeWidth=2;verticalLabelPosition=bottom;verticalAlign=top;align=center;outlineConnect=0;" parent="1" vertex="1">
          <mxGeometry x="-613.75" y="432.6" width="143.75" height="74.6" as="geometry" />
        </mxCell>
        <mxCell id="LC1GmWus9uCB8fRLl5EC-11" value="&lt;b&gt;&lt;font style=&quot;font-size: 21px;&quot;&gt;GESTIÓ&lt;br&gt;&lt;/font&gt;&lt;/b&gt;&lt;font color=&quot;#0000ff&quot;&gt;VLAN 10&lt;br style=&quot;border-color: var(--border-color);&quot;&gt;&lt;/font&gt;&lt;font color=&quot;#ff0505&quot;&gt;192.168.50.48/27&lt;/font&gt;&lt;b&gt;&lt;font style=&quot;font-size: 21px;&quot;&gt;&lt;br&gt;&lt;/font&gt;&lt;/b&gt;" style="ellipse;shape=cloud;whiteSpace=wrap;html=1;rounded=0;shadow=0;comic=0;strokeWidth=2;fontFamily=Verdana;fontSize=12;" parent="1" vertex="1">
          <mxGeometry x="-950" y="119.99999999999999" width="240" height="150" as="geometry" />
        </mxCell>
        <mxCell id="LC1GmWus9uCB8fRLl5EC-12" style="rounded=0;orthogonalLoop=1;jettySize=auto;html=1;endArrow=none;endFill=0;strokeWidth=3;endSize=7;exitX=0.31;exitY=0.8;exitDx=0;exitDy=0;exitPerimeter=0;entryX=0.5;entryY=0.98;entryDx=0;entryDy=0;entryPerimeter=0;" parent="1" source="LC1GmWus9uCB8fRLl5EC-11" target="LC1GmWus9uCB8fRLl5EC-25" edge="1">
          <mxGeometry relative="1" as="geometry">
            <mxPoint x="-438" y="923.9" as="sourcePoint" />
            <mxPoint x="-471.85339999999997" y="668.2947999999996" as="targetPoint" />
          </mxGeometry>
        </mxCell>
        <mxCell id="LC1GmWus9uCB8fRLl5EC-13" value="&lt;b&gt;&lt;font color=&quot;#ff1900&quot; style=&quot;font-size: 14px;&quot;&gt;.53&lt;/font&gt;&lt;/b&gt;" style="edgeLabel;html=1;align=center;verticalAlign=middle;resizable=0;points=[];" parent="LC1GmWus9uCB8fRLl5EC-12" vertex="1" connectable="0">
          <mxGeometry x="-0.7868" relative="1" as="geometry">
            <mxPoint x="-17" y="-9" as="offset" />
          </mxGeometry>
        </mxCell>
        <mxCell id="LC1GmWus9uCB8fRLl5EC-14" style="rounded=0;orthogonalLoop=1;jettySize=auto;html=1;strokeColor=default;endArrow=none;endFill=0;endSize=6;strokeWidth=2;exitX=0.25;exitY=0.25;exitDx=0;exitDy=0;exitPerimeter=0;entryX=0.87;entryY=0.74;entryDx=0;entryDy=0;entryPerimeter=0;" parent="1" source="LC1GmWus9uCB8fRLl5EC-20" target="LC1GmWus9uCB8fRLl5EC-25" edge="1">
          <mxGeometry relative="1" as="geometry">
            <mxPoint x="-1094.7999999999997" y="510.19452359750636" as="targetPoint" />
          </mxGeometry>
        </mxCell>
        <mxCell id="LC1GmWus9uCB8fRLl5EC-15" style="rounded=0;orthogonalLoop=1;jettySize=auto;html=1;strokeColor=default;endArrow=none;endFill=0;strokeWidth=2;exitX=0.625;exitY=0.2;exitDx=0;exitDy=0;exitPerimeter=0;" parent="1" source="LC1GmWus9uCB8fRLl5EC-21" target="LC1GmWus9uCB8fRLl5EC-25" edge="1">
          <mxGeometry relative="1" as="geometry">
            <mxPoint x="-1093.3888000000002" y="435.99799999999965" as="targetPoint" />
          </mxGeometry>
        </mxCell>
        <mxCell id="LC1GmWus9uCB8fRLl5EC-16" style="rounded=0;orthogonalLoop=1;jettySize=auto;html=1;strokeColor=default;endArrow=none;endFill=0;endSize=6;strokeWidth=2;exitX=0.625;exitY=0.2;exitDx=0;exitDy=0;exitPerimeter=0;entryX=0;entryY=0.98;entryDx=0;entryDy=0;entryPerimeter=0;" parent="1" source="LC1GmWus9uCB8fRLl5EC-114" target="LC1GmWus9uCB8fRLl5EC-25" edge="1">
          <mxGeometry relative="1" as="geometry">
            <mxPoint x="-1094.5354000000002" y="478.0159999999997" as="targetPoint" />
            <mxPoint x="-987" y="475.84999999999997" as="sourcePoint" />
          </mxGeometry>
        </mxCell>
        <mxCell id="LC1GmWus9uCB8fRLl5EC-17" style="rounded=0;orthogonalLoop=1;jettySize=auto;html=1;strokeColor=default;endArrow=none;endFill=0;endSize=6;strokeWidth=2;entryX=0.006;entryY=0.373;entryDx=0;entryDy=0;entryPerimeter=0;exitX=0.875;exitY=0.5;exitDx=0;exitDy=0;exitPerimeter=0;" parent="1" source="LC1GmWus9uCB8fRLl5EC-23" edge="1">
          <mxGeometry relative="1" as="geometry">
            <mxPoint x="-1182.4707999999996" y="465.1423999999998" as="targetPoint" />
          </mxGeometry>
        </mxCell>
        <mxCell id="LC1GmWus9uCB8fRLl5EC-18" style="rounded=0;orthogonalLoop=1;jettySize=auto;html=1;strokeColor=default;endArrow=none;endFill=0;endSize=6;strokeWidth=2;exitX=0.875;exitY=0.5;exitDx=0;exitDy=0;exitPerimeter=0;startArrow=none;startFill=0;shadow=0;" parent="1" source="LC1GmWus9uCB8fRLl5EC-24" target="LC1GmWus9uCB8fRLl5EC-25" edge="1">
          <mxGeometry relative="1" as="geometry">
            <mxPoint x="-1181.2360000000003" y="515.0275999999996" as="targetPoint" />
            <mxPoint x="-1274" y="495.45" as="sourcePoint" />
          </mxGeometry>
        </mxCell>
        <mxCell id="LC1GmWus9uCB8fRLl5EC-19" style="rounded=0;orthogonalLoop=1;jettySize=auto;html=1;strokeColor=default;endArrow=none;endFill=0;endSize=6;strokeWidth=2;exitX=0.686;exitY=0.932;exitDx=0;exitDy=0;exitPerimeter=0;entryX=0.87;entryY=0.74;entryDx=0;entryDy=0;entryPerimeter=0;" parent="1" source="LC1GmWus9uCB8fRLl5EC-22" target="LC1GmWus9uCB8fRLl5EC-25" edge="1">
          <mxGeometry relative="1" as="geometry">
            <mxPoint x="-1181.8534" y="430.6339999999996" as="targetPoint" />
          </mxGeometry>
        </mxCell>
        <mxCell id="LC1GmWus9uCB8fRLl5EC-20" value="Wi-Fi&lt;br&gt;&lt;font color=&quot;#0000ff&quot;&gt;VLAN 20&lt;br&gt;[8/20-21]&lt;/font&gt;" style="ellipse;shape=cloud;whiteSpace=wrap;html=1;rounded=0;shadow=0;comic=0;strokeWidth=2;fontFamily=Verdana;fontSize=12;" parent="1" vertex="1">
          <mxGeometry x="-1077.8999999999999" y="527.5000000000001" width="120" height="80" as="geometry" />
        </mxCell>
        <mxCell id="LC1GmWus9uCB8fRLl5EC-21" value="Climatització&lt;br style=&quot;border-color: var(--border-color);&quot;&gt;&lt;font color=&quot;#0000ff&quot; style=&quot;border-color: var(--border-color);&quot;&gt;VLAN 18&lt;br style=&quot;border-color: var(--border-color);&quot;&gt;[8/15-18]&lt;/font&gt;" style="ellipse;shape=cloud;whiteSpace=wrap;html=1;rounded=0;shadow=0;comic=0;strokeWidth=2;fontFamily=Verdana;fontSize=12;" parent="1" vertex="1">
          <mxGeometry x="-1170" y="305.3" width="138" height="83.2" as="geometry" />
        </mxCell>
        <mxCell id="LC1GmWus9uCB8fRLl5EC-22" value="Servei tècnic&lt;br&gt;&lt;font color=&quot;#0000ff&quot;&gt;VLAN 15&lt;br&gt;[1/12-14]&lt;/font&gt;" style="ellipse;shape=cloud;whiteSpace=wrap;html=1;rounded=0;shadow=0;comic=0;strokeWidth=2;fontFamily=Verdana;fontSize=12;" parent="1" vertex="1">
          <mxGeometry x="-1327.9" y="305.3" width="130" height="91.2" as="geometry" />
        </mxCell>
        <mxCell id="LC1GmWus9uCB8fRLl5EC-23" value="Post Venda&lt;br&gt;&lt;font color=&quot;#0000ff&quot;&gt;VLAN 14&lt;br&gt;[8/9-11]&lt;/font&gt;" style="ellipse;shape=cloud;whiteSpace=wrap;html=1;rounded=0;shadow=0;comic=0;strokeWidth=2;fontFamily=Verdana;fontSize=12;" parent="1" vertex="1">
          <mxGeometry x="-1396.3" y="411.59999999999997" width="130" height="83.4" as="geometry" />
        </mxCell>
        <mxCell id="LC1GmWus9uCB8fRLl5EC-24" value="Seguretat&lt;br&gt;&lt;font color=&quot;#0000ff&quot;&gt;VLAN 19&lt;br&gt;[8/17-19]&lt;/font&gt;" style="ellipse;shape=cloud;whiteSpace=wrap;html=1;rounded=0;shadow=0;comic=0;strokeWidth=2;fontFamily=Verdana;fontSize=12;" parent="1" vertex="1">
          <mxGeometry x="-1032" y="417.2" width="140" height="90" as="geometry" />
        </mxCell>
        <mxCell id="LC1GmWus9uCB8fRLl5EC-25" value="&lt;font style=&quot;font-size: 17px;&quot;&gt;&lt;b&gt;R-SOT.&lt;/b&gt;&lt;/font&gt;" style="shape=mxgraph.cisco.switches.workgroup_switch;sketch=0;html=1;pointerEvents=1;dashed=0;fillColor=#036897;strokeColor=#ffffff;strokeWidth=2;verticalLabelPosition=bottom;verticalAlign=top;align=center;outlineConnect=0;" parent="1" vertex="1">
          <mxGeometry x="-1225" y="438.15000000000003" width="143.75" height="74.6" as="geometry" />
        </mxCell>
        <mxCell id="LC1GmWus9uCB8fRLl5EC-26" style="rounded=0;orthogonalLoop=1;jettySize=auto;html=1;strokeColor=default;endArrow=none;endFill=0;endSize=6;strokeWidth=2;exitX=0.25;exitY=0.25;exitDx=0;exitDy=0;exitPerimeter=0;entryX=0.98;entryY=0.5;entryDx=0;entryDy=0;entryPerimeter=0;" parent="1" source="LC1GmWus9uCB8fRLl5EC-37" target="LC1GmWus9uCB8fRLl5EC-46" edge="1">
          <mxGeometry relative="1" as="geometry">
            <mxPoint x="-1132" y="-150" as="targetPoint" />
          </mxGeometry>
        </mxCell>
        <mxCell id="LC1GmWus9uCB8fRLl5EC-27" style="rounded=0;orthogonalLoop=1;jettySize=auto;html=1;strokeColor=default;endArrow=none;endFill=0;strokeWidth=2;exitX=0.31;exitY=0.8;exitDx=0;exitDy=0;exitPerimeter=0;entryX=0.981;entryY=0.417;entryDx=0;entryDy=0;entryPerimeter=0;" parent="1" source="LC1GmWus9uCB8fRLl5EC-38" edge="1">
          <mxGeometry relative="1" as="geometry">
            <mxPoint x="-1095.4757999999997" y="-125.44039999999995" as="targetPoint" />
          </mxGeometry>
        </mxCell>
        <mxCell id="LC1GmWus9uCB8fRLl5EC-28" style="rounded=0;orthogonalLoop=1;jettySize=auto;html=1;endArrow=none;endFill=0;strokeWidth=3;endSize=7;exitX=0.25;exitY=0.25;exitDx=0;exitDy=0;exitPerimeter=0;" parent="1" source="LC1GmWus9uCB8fRLl5EC-11" edge="1">
          <mxGeometry relative="1" as="geometry">
            <mxPoint x="-1470" y="-440" as="sourcePoint" />
            <mxPoint x="-1172" y="-150" as="targetPoint" />
          </mxGeometry>
        </mxCell>
        <mxCell id="LC1GmWus9uCB8fRLl5EC-29" value="&lt;b&gt;&lt;font color=&quot;#ff1900&quot; style=&quot;font-size: 14px;&quot;&gt;.50&lt;/font&gt;&lt;/b&gt;" style="edgeLabel;html=1;align=center;verticalAlign=middle;resizable=0;points=[];" parent="LC1GmWus9uCB8fRLl5EC-28" vertex="1" connectable="0">
          <mxGeometry x="-0.7868" relative="1" as="geometry">
            <mxPoint x="15" y="-5" as="offset" />
          </mxGeometry>
        </mxCell>
        <mxCell id="LC1GmWus9uCB8fRLl5EC-30" style="rounded=0;orthogonalLoop=1;jettySize=auto;html=1;strokeColor=default;endArrow=none;endFill=0;endSize=6;strokeWidth=2;exitX=0.16;exitY=0.55;exitDx=0;exitDy=0;exitPerimeter=0;" parent="1" source="LC1GmWus9uCB8fRLl5EC-39" target="LC1GmWus9uCB8fRLl5EC-46" edge="1">
          <mxGeometry relative="1" as="geometry">
            <mxPoint x="-1094.4173999999998" y="-166.7431999999999" as="targetPoint" />
            <Array as="points" />
          </mxGeometry>
        </mxCell>
        <mxCell id="LC1GmWus9uCB8fRLl5EC-31" style="rounded=0;orthogonalLoop=1;jettySize=auto;html=1;strokeColor=default;endArrow=none;endFill=0;endSize=6;strokeWidth=2;exitX=0.43;exitY=0.109;exitDx=0;exitDy=0;exitPerimeter=0;" parent="1" source="LC1GmWus9uCB8fRLl5EC-41" target="LC1GmWus9uCB8fRLl5EC-46" edge="1">
          <mxGeometry relative="1" as="geometry">
            <mxPoint x="-1095.2111999999997" y="-40.86799999999994" as="targetPoint" />
          </mxGeometry>
        </mxCell>
        <mxCell id="LC1GmWus9uCB8fRLl5EC-32" style="rounded=0;orthogonalLoop=1;jettySize=auto;html=1;strokeColor=default;endArrow=none;endFill=0;endSize=6;strokeWidth=2;entryX=0.151;entryY=0.932;entryDx=0;entryDy=0;entryPerimeter=0;exitX=0.475;exitY=0.119;exitDx=0;exitDy=0;exitPerimeter=0;" parent="1" source="LC1GmWus9uCB8fRLl5EC-42" target="LC1GmWus9uCB8fRLl5EC-46" edge="1">
          <mxGeometry relative="1" as="geometry">
            <mxPoint x="-1181.4708" y="-133.3076000000001" as="targetPoint" />
          </mxGeometry>
        </mxCell>
        <mxCell id="LC1GmWus9uCB8fRLl5EC-33" style="rounded=0;orthogonalLoop=1;jettySize=auto;html=1;strokeColor=default;endArrow=none;endFill=0;endSize=6;strokeWidth=2;exitX=0.875;exitY=0.5;exitDx=0;exitDy=0;exitPerimeter=0;" parent="1" source="LC1GmWus9uCB8fRLl5EC-43" edge="1">
          <mxGeometry relative="1" as="geometry">
            <mxPoint x="-1182" y="-108.61996984419511" as="targetPoint" />
          </mxGeometry>
        </mxCell>
        <mxCell id="LC1GmWus9uCB8fRLl5EC-34" style="rounded=0;orthogonalLoop=1;jettySize=auto;html=1;strokeColor=default;endArrow=none;endFill=0;strokeWidth=2;exitX=0.501;exitY=0.943;exitDx=0;exitDy=0;exitPerimeter=0;" parent="1" source="LC1GmWus9uCB8fRLl5EC-44" target="LC1GmWus9uCB8fRLl5EC-46" edge="1">
          <mxGeometry relative="1" as="geometry">
            <mxPoint x="-1094.3291999999997" y="-101.65999999999985" as="targetPoint" />
          </mxGeometry>
        </mxCell>
        <mxCell id="LC1GmWus9uCB8fRLl5EC-35" style="rounded=0;orthogonalLoop=1;jettySize=auto;html=1;strokeColor=default;endArrow=none;endFill=0;endSize=6;strokeWidth=2;exitX=0.88;exitY=0.25;exitDx=0;exitDy=0;exitPerimeter=0;startArrow=none;startFill=0;shadow=0;" parent="1" source="LC1GmWus9uCB8fRLl5EC-45" target="LC1GmWus9uCB8fRLl5EC-46" edge="1">
          <mxGeometry relative="1" as="geometry">
            <mxPoint x="-1180.2359999999999" y="-83.42239999999993" as="targetPoint" />
            <mxPoint x="-1273" y="-103" as="sourcePoint" />
          </mxGeometry>
        </mxCell>
        <mxCell id="LC1GmWus9uCB8fRLl5EC-36" style="rounded=0;orthogonalLoop=1;jettySize=auto;html=1;strokeColor=default;endArrow=none;endFill=0;endSize=6;strokeWidth=2;entryX=0.16;entryY=0.23;entryDx=0;entryDy=0;entryPerimeter=0;exitX=0.96;exitY=0.7;exitDx=0;exitDy=0;exitPerimeter=0;" parent="1" source="LC1GmWus9uCB8fRLl5EC-40" target="LC1GmWus9uCB8fRLl5EC-46" edge="1">
          <mxGeometry relative="1" as="geometry">
            <mxPoint x="-1180.7651999999998" y="-57.13879999999972" as="targetPoint" />
          </mxGeometry>
        </mxCell>
        <mxCell id="LC1GmWus9uCB8fRLl5EC-37" value="Wi-Fi&lt;br&gt;&lt;font color=&quot;#0000ff&quot;&gt;VLAN 20&lt;br&gt;[8/32-34]&lt;/font&gt;" style="ellipse;shape=cloud;whiteSpace=wrap;html=1;rounded=0;shadow=0;comic=0;strokeWidth=2;fontFamily=Verdana;fontSize=12;" parent="1" vertex="1">
          <mxGeometry x="-1003.3000000000001" y="-97.89999999999992" width="120" height="80" as="geometry" />
        </mxCell>
        <mxCell id="LC1GmWus9uCB8fRLl5EC-38" value="Climatització&lt;br style=&quot;border-color: var(--border-color);&quot;&gt;&lt;font color=&quot;#0000ff&quot; style=&quot;border-color: var(--border-color);&quot;&gt;VLAN 18&lt;br style=&quot;border-color: var(--border-color);&quot;&gt;[8/25-27]&lt;/font&gt;" style="ellipse;shape=cloud;whiteSpace=wrap;html=1;rounded=0;shadow=0;comic=0;strokeWidth=2;fontFamily=Verdana;fontSize=12;" parent="1" vertex="1">
          <mxGeometry x="-1059.8" y="-280" width="138" height="83.2" as="geometry" />
        </mxCell>
        <mxCell id="LC1GmWus9uCB8fRLl5EC-39" value="Seguretat&lt;br&gt;&lt;font color=&quot;#0000ff&quot;&gt;VLAN 19&lt;br&gt;[8/28-34]&lt;/font&gt;" style="ellipse;shape=cloud;whiteSpace=wrap;html=1;rounded=0;shadow=0;comic=0;strokeWidth=2;fontFamily=Verdana;fontSize=12;" parent="1" vertex="1">
          <mxGeometry x="-990" y="-194.6" width="120" height="80" as="geometry" />
        </mxCell>
        <mxCell id="LC1GmWus9uCB8fRLl5EC-40" value="Servei tècnic&lt;br&gt;&lt;font color=&quot;#0000ff&quot;&gt;VLAN 15&lt;br&gt;[1/8-7]&lt;/font&gt;" style="ellipse;shape=cloud;whiteSpace=wrap;html=1;rounded=0;shadow=0;comic=0;strokeWidth=2;fontFamily=Verdana;fontSize=12;" parent="1" vertex="1">
          <mxGeometry x="-1440" y="-270" width="130" height="91.2" as="geometry" />
        </mxCell>
        <mxCell id="LC1GmWus9uCB8fRLl5EC-41" value="Vendes&lt;br&gt;&lt;font color=&quot;#0000ff&quot;&gt;VLAN 16&lt;br&gt;[8/8-16]&lt;/font&gt;" style="ellipse;shape=cloud;whiteSpace=wrap;html=1;rounded=0;shadow=0;comic=0;strokeWidth=2;fontFamily=Verdana;fontSize=12;" parent="1" vertex="1">
          <mxGeometry x="-1327.9" y="-316.6" width="130" height="88.8" as="geometry" />
        </mxCell>
        <mxCell id="LC1GmWus9uCB8fRLl5EC-42" value="Administració&lt;br&gt;&lt;font color=&quot;#0000ff&quot;&gt;VLAN 11&lt;br&gt;[8/2]&lt;/font&gt;" style="ellipse;shape=cloud;whiteSpace=wrap;html=1;rounded=0;shadow=0;comic=0;strokeWidth=2;fontFamily=Verdana;fontSize=12;" parent="1" vertex="1">
          <mxGeometry x="-1266.3" y="-17.900000000000013" width="130" height="83.4" as="geometry" />
        </mxCell>
        <mxCell id="LC1GmWus9uCB8fRLl5EC-43" value="Atenció al&lt;br&gt;client&lt;br&gt;&lt;font color=&quot;#0000ff&quot;&gt;VLAN 12&lt;br&gt;[8/3-5]&lt;/font&gt;" style="ellipse;shape=cloud;whiteSpace=wrap;html=1;rounded=0;shadow=0;comic=0;strokeWidth=2;fontFamily=Verdana;fontSize=12;" parent="1" vertex="1">
          <mxGeometry x="-1420" y="-167.1" width="133" height="92.2" as="geometry" />
        </mxCell>
        <mxCell id="LC1GmWus9uCB8fRLl5EC-44" value="Demostració&lt;br&gt;&lt;font color=&quot;#0000ff&quot;&gt;VLAN 17&lt;br&gt;[8/17-24]&lt;/font&gt;" style="ellipse;shape=cloud;whiteSpace=wrap;html=1;rounded=0;shadow=0;comic=0;strokeWidth=2;fontFamily=Verdana;fontSize=12;" parent="1" vertex="1">
          <mxGeometry x="-1190" y="-334.40000000000003" width="150" height="83.2" as="geometry" />
        </mxCell>
        <mxCell id="LC1GmWus9uCB8fRLl5EC-45" value="Magatzem&lt;br&gt;&lt;font color=&quot;#0000ff&quot;&gt;VLAN 13&lt;br&gt;[8/6]&lt;/font&gt;" style="ellipse;shape=cloud;whiteSpace=wrap;html=1;rounded=0;shadow=0;comic=0;strokeWidth=2;fontFamily=Verdana;fontSize=12;" parent="1" vertex="1">
          <mxGeometry x="-1402" y="-69.99999999999996" width="140" height="90" as="geometry" />
        </mxCell>
        <mxCell id="LC1GmWus9uCB8fRLl5EC-46" value="&lt;font style=&quot;font-size: 17px;&quot;&gt;&lt;b&gt;R-P1&lt;/b&gt;&lt;/font&gt;" style="shape=mxgraph.cisco.switches.workgroup_switch;sketch=0;html=1;pointerEvents=1;dashed=0;fillColor=#036897;strokeColor=#ffffff;strokeWidth=2;verticalLabelPosition=bottom;verticalAlign=top;align=center;outlineConnect=0;" parent="1" vertex="1">
          <mxGeometry x="-1221.65" y="-149.5" width="143.75" height="74.6" as="geometry" />
        </mxCell>
        <mxCell id="LC1GmWus9uCB8fRLl5EC-47" style="rounded=0;orthogonalLoop=1;jettySize=auto;html=1;strokeColor=default;endArrow=none;endFill=0;endSize=6;strokeWidth=2;exitX=0.32;exitY=0.169;exitDx=0;exitDy=0;exitPerimeter=0;entryX=0.87;entryY=0.74;entryDx=0;entryDy=0;entryPerimeter=0;" parent="1" source="LC1GmWus9uCB8fRLl5EC-58" target="LC1GmWus9uCB8fRLl5EC-67" edge="1">
          <mxGeometry relative="1" as="geometry">
            <mxPoint x="-311.7999999999997" y="-248.52603792926703" as="targetPoint" />
          </mxGeometry>
        </mxCell>
        <mxCell id="LC1GmWus9uCB8fRLl5EC-48" style="rounded=0;orthogonalLoop=1;jettySize=auto;html=1;strokeColor=default;endArrow=none;endFill=0;strokeWidth=2;exitX=0.07;exitY=0.4;exitDx=0;exitDy=0;exitPerimeter=0;" parent="1" source="LC1GmWus9uCB8fRLl5EC-59" target="LC1GmWus9uCB8fRLl5EC-67" edge="1">
          <mxGeometry relative="1" as="geometry">
            <mxPoint x="-313.9167999999995" y="-231.13520000000045" as="targetPoint" />
          </mxGeometry>
        </mxCell>
        <mxCell id="LC1GmWus9uCB8fRLl5EC-49" style="rounded=0;orthogonalLoop=1;jettySize=auto;html=1;strokeColor=default;endArrow=none;endFill=0;strokeWidth=2;exitX=0.8;exitY=0.8;exitDx=0;exitDy=0;exitPerimeter=0;entryX=0.304;entryY=0.001;entryDx=0;entryDy=0;entryPerimeter=0;" parent="1" source="LC1GmWus9uCB8fRLl5EC-60" target="LC1GmWus9uCB8fRLl5EC-67" edge="1">
          <mxGeometry relative="1" as="geometry">
            <mxPoint x="-398.7651999999998" y="-257.59760000000034" as="targetPoint" />
          </mxGeometry>
        </mxCell>
        <mxCell id="LC1GmWus9uCB8fRLl5EC-50" style="rounded=0;orthogonalLoop=1;jettySize=auto;html=1;endArrow=none;endFill=0;strokeWidth=3;endSize=7;exitX=0.81;exitY=0.198;exitDx=0;exitDy=0;exitPerimeter=0;" parent="1" source="LC1GmWus9uCB8fRLl5EC-11" target="LC1GmWus9uCB8fRLl5EC-67" edge="1">
          <mxGeometry relative="1" as="geometry">
            <mxPoint x="-680" y="20" as="sourcePoint" />
            <mxPoint x="-368.8285999999998" y="-328.3068" as="targetPoint" />
          </mxGeometry>
        </mxCell>
        <mxCell id="LC1GmWus9uCB8fRLl5EC-51" value="&lt;span&gt;&lt;font color=&quot;#ff1900&quot; style=&quot;font-size: 14px;&quot;&gt;.51&lt;/font&gt;&lt;/span&gt;" style="edgeLabel;html=1;align=center;verticalAlign=middle;resizable=0;points=[];fontStyle=1" parent="LC1GmWus9uCB8fRLl5EC-50" vertex="1" connectable="0">
          <mxGeometry x="-0.7868" relative="1" as="geometry">
            <mxPoint x="-29" y="2" as="offset" />
          </mxGeometry>
        </mxCell>
        <mxCell id="LC1GmWus9uCB8fRLl5EC-52" style="rounded=0;orthogonalLoop=1;jettySize=auto;html=1;strokeColor=default;endArrow=none;endFill=0;endSize=6;strokeWidth=2;exitX=0.116;exitY=0.31;exitDx=0;exitDy=0;exitPerimeter=0;entryX=0.98;entryY=0.5;entryDx=0;entryDy=0;entryPerimeter=0;" parent="1" source="LC1GmWus9uCB8fRLl5EC-61" target="LC1GmWus9uCB8fRLl5EC-67" edge="1">
          <mxGeometry relative="1" as="geometry">
            <mxPoint x="-313.8285999999998" y="-268.6831999999998" as="targetPoint" />
          </mxGeometry>
        </mxCell>
        <mxCell id="LC1GmWus9uCB8fRLl5EC-53" style="rounded=0;orthogonalLoop=1;jettySize=auto;html=1;strokeColor=default;endArrow=none;endFill=0;endSize=6;strokeWidth=2;exitX=0.55;exitY=0.95;exitDx=0;exitDy=0;exitPerimeter=0;" parent="1" source="LC1GmWus9uCB8fRLl5EC-62" target="LC1GmWus9uCB8fRLl5EC-67" edge="1">
          <mxGeometry relative="1" as="geometry">
            <mxPoint x="-399" y="-228.4744572158359" as="targetPoint" />
          </mxGeometry>
        </mxCell>
        <mxCell id="LC1GmWus9uCB8fRLl5EC-54" style="rounded=0;orthogonalLoop=1;jettySize=auto;html=1;strokeColor=default;endArrow=none;endFill=0;endSize=6;strokeWidth=2;exitX=0.31;exitY=0.8;exitDx=0;exitDy=0;exitPerimeter=0;" parent="1" source="LC1GmWus9uCB8fRLl5EC-63" target="LC1GmWus9uCB8fRLl5EC-67" edge="1">
          <mxGeometry relative="1" as="geometry">
            <mxPoint x="-385.79999999999995" y="-194.39999999999947" as="targetPoint" />
          </mxGeometry>
        </mxCell>
        <mxCell id="LC1GmWus9uCB8fRLl5EC-55" style="rounded=0;orthogonalLoop=1;jettySize=auto;html=1;strokeColor=default;endArrow=none;endFill=0;endSize=6;strokeWidth=2;exitX=0.88;exitY=0.25;exitDx=0;exitDy=0;exitPerimeter=0;" parent="1" source="LC1GmWus9uCB8fRLl5EC-64" target="LC1GmWus9uCB8fRLl5EC-67" edge="1">
          <mxGeometry relative="1" as="geometry">
            <mxPoint x="-344" y="-305.99999999999983" as="targetPoint" />
          </mxGeometry>
        </mxCell>
        <mxCell id="LC1GmWus9uCB8fRLl5EC-56" style="rounded=0;orthogonalLoop=1;jettySize=auto;html=1;strokeColor=default;endArrow=none;endFill=0;endSize=6;strokeWidth=2;exitX=0.875;exitY=0.5;exitDx=0;exitDy=0;exitPerimeter=0;entryX=0.16;entryY=0.23;entryDx=0;entryDy=0;entryPerimeter=0;" parent="1" source="LC1GmWus9uCB8fRLl5EC-65" target="LC1GmWus9uCB8fRLl5EC-67" edge="1">
          <mxGeometry relative="1" as="geometry">
            <mxPoint x="-399.29439999999977" y="-287.4572000000001" as="targetPoint" />
          </mxGeometry>
        </mxCell>
        <mxCell id="LC1GmWus9uCB8fRLl5EC-57" style="rounded=0;orthogonalLoop=1;jettySize=auto;html=1;strokeColor=default;endArrow=none;endFill=0;strokeWidth=2;exitX=0.16;exitY=0.55;exitDx=0;exitDy=0;exitPerimeter=0;" parent="1" source="LC1GmWus9uCB8fRLl5EC-66" target="LC1GmWus9uCB8fRLl5EC-67" edge="1">
          <mxGeometry relative="1" as="geometry">
            <mxPoint x="-312.77019999999993" y="-191.44159999999994" as="targetPoint" />
          </mxGeometry>
        </mxCell>
        <mxCell id="LC1GmWus9uCB8fRLl5EC-58" value="Wi-Fi&lt;br&gt;&lt;font color=&quot;#0000ff&quot;&gt;VLAN 20&lt;br&gt;[1/20-22]&lt;/font&gt;" style="ellipse;shape=cloud;whiteSpace=wrap;html=1;rounded=0;shadow=0;comic=0;strokeWidth=2;fontFamily=Verdana;fontSize=12;" parent="1" vertex="1">
          <mxGeometry x="-311" y="-177.69999999999987" width="120" height="80" as="geometry" />
        </mxCell>
        <mxCell id="LC1GmWus9uCB8fRLl5EC-59" value="Climatització&lt;br&gt;&lt;font color=&quot;#0000ff&quot;&gt;VLAN 18&lt;br&gt;[1/13-15]&lt;/font&gt;" style="ellipse;shape=cloud;whiteSpace=wrap;html=1;rounded=0;shadow=0;comic=0;strokeWidth=2;fontFamily=Verdana;fontSize=12;" parent="1" vertex="1">
          <mxGeometry x="-191" y="-313" width="138" height="83.2" as="geometry" />
        </mxCell>
        <mxCell id="LC1GmWus9uCB8fRLl5EC-60" value="Post Venda&lt;br&gt;&lt;font color=&quot;#0000ff&quot;&gt;VLAN 14&lt;br&gt;[1/5]&lt;/font&gt;" style="ellipse;shape=cloud;whiteSpace=wrap;html=1;rounded=0;shadow=0;comic=0;strokeWidth=2;fontFamily=Verdana;fontSize=12;" parent="1" vertex="1">
          <mxGeometry x="-570" y="-403" width="140" height="90" as="geometry" />
        </mxCell>
        <mxCell id="LC1GmWus9uCB8fRLl5EC-61" value="Seguretat&lt;br&gt;&lt;font color=&quot;#0000ff&quot;&gt;VLAN 19&lt;br&gt;[1/16-19]&lt;/font&gt;" style="ellipse;shape=cloud;whiteSpace=wrap;html=1;rounded=0;shadow=0;comic=0;strokeWidth=2;fontFamily=Verdana;fontSize=12;" parent="1" vertex="1">
          <mxGeometry x="-213.5" y="-229.8" width="120" height="80" as="geometry" />
        </mxCell>
        <mxCell id="LC1GmWus9uCB8fRLl5EC-62" value="Servei tècnic&lt;br&gt;&lt;font color=&quot;#0000ff&quot;&gt;VLAN 15&lt;br&gt;[1/6-7]&lt;/font&gt;" style="ellipse;shape=cloud;whiteSpace=wrap;html=1;rounded=0;shadow=0;comic=0;strokeWidth=2;fontFamily=Verdana;fontSize=12;" parent="1" vertex="1">
          <mxGeometry x="-440" y="-470" width="130" height="91.2" as="geometry" />
        </mxCell>
        <mxCell id="LC1GmWus9uCB8fRLl5EC-63" value="Vendes&lt;br&gt;&lt;font color=&quot;#0000ff&quot;&gt;VLAN 16&lt;br&gt;[1/8-10]&lt;/font&gt;" style="ellipse;shape=cloud;whiteSpace=wrap;html=1;rounded=0;shadow=0;comic=0;strokeWidth=2;fontFamily=Verdana;fontSize=12;" parent="1" vertex="1">
          <mxGeometry x="-305" y="-465.3" width="130" height="88.8" as="geometry" />
        </mxCell>
        <mxCell id="LC1GmWus9uCB8fRLl5EC-64" value="Administració&lt;br&gt;&lt;font color=&quot;#0000ff&quot;&gt;VLAN 11&lt;br&gt;[1/2]&lt;/font&gt;" style="ellipse;shape=cloud;whiteSpace=wrap;html=1;rounded=0;shadow=0;comic=0;strokeWidth=2;fontFamily=Verdana;fontSize=12;" parent="1" vertex="1">
          <mxGeometry x="-610" y="-218.89999999999998" width="130" height="83.4" as="geometry" />
        </mxCell>
        <mxCell id="LC1GmWus9uCB8fRLl5EC-65" value="Atenció al&lt;br&gt;client&lt;br&gt;&lt;font color=&quot;#0000ff&quot;&gt;VLAN 12&lt;br&gt;[1/3-4]&lt;/font&gt;" style="ellipse;shape=cloud;whiteSpace=wrap;html=1;rounded=0;shadow=0;comic=0;strokeWidth=2;fontFamily=Verdana;fontSize=12;" parent="1" vertex="1">
          <mxGeometry x="-615" y="-307.69999999999993" width="133" height="83.4" as="geometry" />
        </mxCell>
        <mxCell id="LC1GmWus9uCB8fRLl5EC-66" value="Demostració&lt;br&gt;&lt;font color=&quot;#0000ff&quot;&gt;VLAN 17&lt;br&gt;[1/11-12]&lt;/font&gt;" style="ellipse;shape=cloud;whiteSpace=wrap;html=1;rounded=0;shadow=0;comic=0;strokeWidth=2;fontFamily=Verdana;fontSize=12;" parent="1" vertex="1">
          <mxGeometry x="-191" y="-403" width="121" height="83.2" as="geometry" />
        </mxCell>
        <mxCell id="LC1GmWus9uCB8fRLl5EC-67" value="&lt;font style=&quot;font-size: 17px;&quot;&gt;&lt;b&gt;R-P2&lt;/b&gt;&lt;/font&gt;" style="shape=mxgraph.cisco.switches.workgroup_switch;sketch=0;html=1;pointerEvents=1;dashed=0;fillColor=#036897;strokeColor=#ffffff;strokeWidth=2;verticalLabelPosition=bottom;verticalAlign=top;align=center;outlineConnect=0;" parent="1" vertex="1">
          <mxGeometry x="-423.75" y="-282.8" width="143.75" height="74.6" as="geometry" />
        </mxCell>
        <mxCell id="LC1GmWus9uCB8fRLl5EC-68" style="rounded=0;orthogonalLoop=1;jettySize=auto;html=1;endArrow=none;endFill=0;strokeWidth=3;endSize=7;entryX=0.021;entryY=0.587;entryDx=0;entryDy=0;entryPerimeter=0;exitX=0.875;exitY=0.5;exitDx=0;exitDy=0;exitPerimeter=0;" parent="1" source="LC1GmWus9uCB8fRLl5EC-11" edge="1">
          <mxGeometry relative="1" as="geometry">
            <mxPoint x="-775" y="239" as="sourcePoint" />
            <mxPoint x="-342.6478000000002" y="190.25559999999996" as="targetPoint" />
          </mxGeometry>
        </mxCell>
        <mxCell id="LC1GmWus9uCB8fRLl5EC-69" value="&lt;b&gt;&lt;font color=&quot;#ff1900&quot; style=&quot;font-size: 14px;&quot;&gt;.49&lt;/font&gt;&lt;/b&gt;" style="edgeLabel;html=1;align=center;verticalAlign=middle;resizable=0;points=[];" parent="LC1GmWus9uCB8fRLl5EC-68" vertex="1" connectable="0">
          <mxGeometry x="-0.7868" relative="1" as="geometry">
            <mxPoint x="1" y="-16" as="offset" />
          </mxGeometry>
        </mxCell>
        <mxCell id="LC1GmWus9uCB8fRLl5EC-70" style="rounded=0;orthogonalLoop=1;jettySize=auto;html=1;strokeColor=default;endArrow=none;endFill=0;endSize=6;strokeWidth=2;exitX=0.07;exitY=0.4;exitDx=0;exitDy=0;exitPerimeter=0;entryX=1;entryY=0.5;entryDx=0;entryDy=0;entryPerimeter=0;" parent="1" source="LC1GmWus9uCB8fRLl5EC-79" target="LC1GmWus9uCB8fRLl5EC-88" edge="1">
          <mxGeometry relative="1" as="geometry">
            <mxPoint x="-307.1032" y="87.62440000000015" as="targetPoint" />
          </mxGeometry>
        </mxCell>
        <mxCell id="LC1GmWus9uCB8fRLl5EC-71" style="rounded=0;orthogonalLoop=1;jettySize=auto;html=1;strokeColor=default;endArrow=none;endFill=0;strokeWidth=2;exitX=0.16;exitY=0.55;exitDx=0;exitDy=0;exitPerimeter=0;" parent="1" source="LC1GmWus9uCB8fRLl5EC-80" target="LC1GmWus9uCB8fRLl5EC-88" edge="1">
          <mxGeometry relative="1" as="geometry">
            <mxPoint x="-257.97580000000016" y="159.85960000000023" as="targetPoint" />
          </mxGeometry>
        </mxCell>
        <mxCell id="LC1GmWus9uCB8fRLl5EC-72" style="rounded=0;orthogonalLoop=1;jettySize=auto;html=1;strokeColor=default;endArrow=none;endFill=0;endSize=6;strokeWidth=2;exitX=0.4;exitY=0.1;exitDx=0;exitDy=0;exitPerimeter=0;entryX=0.88;entryY=0.93;entryDx=0;entryDy=0;entryPerimeter=0;" parent="1" source="2MB21W6MqH4E-HEX_MW0-1" target="LC1GmWus9uCB8fRLl5EC-88" edge="1">
          <mxGeometry relative="1" as="geometry">
            <mxPoint x="-256.91740000000027" y="118.5568000000003" as="targetPoint" />
          </mxGeometry>
        </mxCell>
        <mxCell id="LC1GmWus9uCB8fRLl5EC-73" style="rounded=0;orthogonalLoop=1;jettySize=auto;html=1;strokeColor=default;endArrow=none;endFill=0;endSize=6;strokeWidth=2;exitX=0.476;exitY=0.93;exitDx=0;exitDy=0;exitPerimeter=0;entryX=0.5;entryY=0;entryDx=0;entryDy=0;entryPerimeter=0;" parent="1" source="LC1GmWus9uCB8fRLl5EC-83" target="LC1GmWus9uCB8fRLl5EC-88" edge="1">
          <mxGeometry relative="1" as="geometry">
            <mxPoint x="-235" y="220" as="targetPoint" />
          </mxGeometry>
        </mxCell>
        <mxCell id="LC1GmWus9uCB8fRLl5EC-74" style="rounded=0;orthogonalLoop=1;jettySize=auto;html=1;strokeColor=default;endArrow=none;endFill=0;endSize=6;strokeWidth=2;exitX=0.625;exitY=0.2;exitDx=0;exitDy=0;exitPerimeter=0;entryX=0.12;entryY=0.93;entryDx=0;entryDy=0;entryPerimeter=0;" parent="1" source="LC1GmWus9uCB8fRLl5EC-84" target="LC1GmWus9uCB8fRLl5EC-88" edge="1">
          <mxGeometry relative="1" as="geometry">
            <mxPoint x="-343.9707999999996" y="151.9924000000001" as="targetPoint" />
          </mxGeometry>
        </mxCell>
        <mxCell id="LC1GmWus9uCB8fRLl5EC-75" style="rounded=0;orthogonalLoop=1;jettySize=auto;html=1;strokeColor=default;endArrow=none;endFill=0;endSize=6;strokeWidth=2;exitX=0.875;exitY=0.5;exitDx=0;exitDy=0;exitPerimeter=0;entryX=0.031;entryY=0.862;entryDx=0;entryDy=0;entryPerimeter=0;" parent="1" source="LC1GmWus9uCB8fRLl5EC-85" target="LC1GmWus9uCB8fRLl5EC-88" edge="1">
          <mxGeometry relative="1" as="geometry">
            <mxPoint x="-360" y="210" as="targetPoint" />
          </mxGeometry>
        </mxCell>
        <mxCell id="LC1GmWus9uCB8fRLl5EC-76" style="rounded=0;orthogonalLoop=1;jettySize=auto;html=1;strokeColor=default;endArrow=none;endFill=0;strokeWidth=2;exitX=0.31;exitY=0.8;exitDx=0;exitDy=0;exitPerimeter=0;entryX=0.88;entryY=0.07;entryDx=0;entryDy=0;entryPerimeter=0;" parent="1" source="LC1GmWus9uCB8fRLl5EC-86" target="LC1GmWus9uCB8fRLl5EC-88" edge="1">
          <mxGeometry relative="1" as="geometry">
            <mxPoint x="-256.8292000000001" y="183.64000000000033" as="targetPoint" />
          </mxGeometry>
        </mxCell>
        <mxCell id="LC1GmWus9uCB8fRLl5EC-77" style="rounded=0;orthogonalLoop=1;jettySize=auto;html=1;strokeColor=default;endArrow=none;endFill=0;endSize=6;strokeWidth=2;entryX=0;entryY=0.5;entryDx=0;entryDy=0;entryPerimeter=0;exitX=0.96;exitY=0.7;exitDx=0;exitDy=0;exitPerimeter=0;startArrow=none;startFill=0;shadow=0;" parent="1" source="LC1GmWus9uCB8fRLl5EC-87" target="LC1GmWus9uCB8fRLl5EC-88" edge="1">
          <mxGeometry relative="1" as="geometry">
            <mxPoint x="-342.73600000000033" y="201.87760000000026" as="targetPoint" />
            <mxPoint x="-434.5" y="181.29999999999995" as="sourcePoint" />
          </mxGeometry>
        </mxCell>
        <mxCell id="LC1GmWus9uCB8fRLl5EC-78" style="rounded=0;orthogonalLoop=1;jettySize=auto;html=1;strokeColor=default;endArrow=none;endFill=0;endSize=6;strokeWidth=2;exitX=0.8;exitY=0.8;exitDx=0;exitDy=0;exitPerimeter=0;entryX=0.12;entryY=0.07;entryDx=0;entryDy=0;entryPerimeter=0;" parent="1" source="LC1GmWus9uCB8fRLl5EC-82" target="LC1GmWus9uCB8fRLl5EC-88" edge="1">
          <mxGeometry relative="1" as="geometry">
            <mxPoint x="-343.2651999999998" y="228.1612" as="targetPoint" />
          </mxGeometry>
        </mxCell>
        <mxCell id="LC1GmWus9uCB8fRLl5EC-79" value="Wi-Fi&lt;br&gt;&lt;font color=&quot;#0000ff&quot;&gt;VLAN 20&lt;br&gt;[8/17-19]&lt;/font&gt;" style="ellipse;shape=cloud;whiteSpace=wrap;html=1;rounded=0;shadow=0;comic=0;strokeWidth=2;fontFamily=Verdana;fontSize=12;" parent="1" vertex="1">
          <mxGeometry x="-157.0000000000001" y="138.7500000000001" width="120" height="80" as="geometry" />
        </mxCell>
        <mxCell id="LC1GmWus9uCB8fRLl5EC-80" value="Climatització&lt;br style=&quot;border-color: var(--border-color);&quot;&gt;&lt;font color=&quot;#0000ff&quot; style=&quot;border-color: var(--border-color);&quot;&gt;VLAN 18&lt;br style=&quot;border-color: var(--border-color);&quot;&gt;[2/9-12]&lt;/font&gt;" style="ellipse;shape=cloud;whiteSpace=wrap;html=1;rounded=0;shadow=0;comic=0;strokeWidth=2;fontFamily=Verdana;fontSize=12;" parent="1" vertex="1">
          <mxGeometry x="-175" y="54.900000000000006" width="138" height="83.2" as="geometry" />
        </mxCell>
        <mxCell id="LC1GmWus9uCB8fRLl5EC-81" value="Fibra Òptica&lt;br&gt;&lt;font color=&quot;#0000ff&quot;&gt;VLAN 21&lt;br&gt;&lt;/font&gt;&lt;font color=&quot;#ff0505&quot;&gt;192.168.80.32/28&lt;/font&gt;&lt;br&gt;&lt;font color=&quot;#0000ff&quot;&gt;[2/21]&lt;/font&gt;" style="ellipse;shape=cloud;whiteSpace=wrap;html=1;rounded=0;shadow=0;comic=0;strokeWidth=2;fontFamily=Verdana;fontSize=12;" parent="1" vertex="1">
          <mxGeometry x="-200" y="210" width="180" height="115.7" as="geometry" />
        </mxCell>
        <mxCell id="LC1GmWus9uCB8fRLl5EC-82" value="Servei tècnic&lt;br&gt;&lt;font color=&quot;#0000ff&quot;&gt;VLAN 15&lt;br&gt;[1/8-7]&lt;/font&gt;" style="ellipse;shape=cloud;whiteSpace=wrap;html=1;rounded=0;shadow=0;comic=0;strokeWidth=2;fontFamily=Verdana;fontSize=12;" parent="1" vertex="1">
          <mxGeometry x="-485" y="-10.000000000000068" width="130" height="91.2" as="geometry" />
        </mxCell>
        <mxCell id="LC1GmWus9uCB8fRLl5EC-83" value="Vendes&lt;br&gt;&lt;font color=&quot;#0000ff&quot;&gt;VLAN 16&lt;br&gt;[1/16-24]&lt;br&gt;[2/1-2]&lt;/font&gt;" style="ellipse;shape=cloud;whiteSpace=wrap;html=1;rounded=0;shadow=0;comic=0;strokeWidth=2;fontFamily=Verdana;fontSize=12;" parent="1" vertex="1">
          <mxGeometry x="-355" y="-30.000000000000057" width="130" height="88.8" as="geometry" />
        </mxCell>
        <mxCell id="LC1GmWus9uCB8fRLl5EC-84" value="Administració&lt;br&gt;&lt;font color=&quot;#0000ff&quot;&gt;VLAN 11&lt;br&gt;[8/2]&lt;/font&gt;" style="ellipse;shape=cloud;whiteSpace=wrap;html=1;rounded=0;shadow=0;comic=0;strokeWidth=2;fontFamily=Verdana;fontSize=12;" parent="1" vertex="1">
          <mxGeometry x="-460" y="277.5" width="130" height="83.4" as="geometry" />
        </mxCell>
        <mxCell id="LC1GmWus9uCB8fRLl5EC-85" value="Atenció al&lt;br&gt;client&lt;br&gt;&lt;font color=&quot;#0000ff&quot;&gt;VLAN 12&lt;br&gt;[1/7-11]&lt;/font&gt;" style="ellipse;shape=cloud;whiteSpace=wrap;html=1;rounded=0;shadow=0;comic=0;strokeWidth=2;fontFamily=Verdana;fontSize=12;" parent="1" vertex="1">
          <mxGeometry x="-573" y="200" width="133" height="92.2" as="geometry" />
        </mxCell>
        <mxCell id="LC1GmWus9uCB8fRLl5EC-86" value="Demostració&lt;br&gt;&lt;font color=&quot;#0000ff&quot;&gt;VLAN 17&lt;br&gt;[8/17-24]&lt;/font&gt;" style="ellipse;shape=cloud;whiteSpace=wrap;html=1;rounded=0;shadow=0;comic=0;strokeWidth=2;fontFamily=Verdana;fontSize=12;" parent="1" vertex="1">
          <mxGeometry x="-213.5" y="-28.299999999999997" width="133.5" height="83.2" as="geometry" />
        </mxCell>
        <mxCell id="LC1GmWus9uCB8fRLl5EC-87" value="Magatzem&lt;br&gt;&lt;font color=&quot;#0000ff&quot;&gt;VLAN 13&lt;br&gt;[8/6]&lt;/font&gt;" style="ellipse;shape=cloud;whiteSpace=wrap;html=1;rounded=0;shadow=0;comic=0;strokeWidth=2;fontFamily=Verdana;fontSize=12;" parent="1" vertex="1">
          <mxGeometry x="-570" y="71.15" width="140" height="90" as="geometry" />
        </mxCell>
        <mxCell id="LC1GmWus9uCB8fRLl5EC-88" value="&lt;font style=&quot;font-size: 17px;&quot;&gt;&lt;b&gt;R-P.B.&lt;/b&gt;&lt;/font&gt;" style="shape=mxgraph.cisco.switches.mgx_8000_multiservice_switch;sketch=0;html=1;pointerEvents=1;dashed=0;fillColor=#036897;strokeColor=#ffffff;strokeWidth=2;verticalLabelPosition=bottom;verticalAlign=top;align=center;outlineConnect=0;" parent="1" vertex="1">
          <mxGeometry x="-355" y="100" width="115.6" height="130" as="geometry" />
        </mxCell>
        <mxCell id="LC1GmWus9uCB8fRLl5EC-89" style="rounded=0;orthogonalLoop=1;jettySize=auto;html=1;endArrow=none;endFill=0;strokeWidth=3;endSize=7;exitX=0.625;exitY=0.2;exitDx=0;exitDy=0;exitPerimeter=0;" parent="1" source="LC1GmWus9uCB8fRLl5EC-11" target="LC1GmWus9uCB8fRLl5EC-109" edge="1">
          <mxGeometry relative="1" as="geometry">
            <mxPoint x="-1290" y="-618.6" as="sourcePoint" />
            <mxPoint x="-857.6478000000002" y="-667.3444000000001" as="targetPoint" />
          </mxGeometry>
        </mxCell>
        <mxCell id="LC1GmWus9uCB8fRLl5EC-90" value="&lt;b&gt;&lt;font color=&quot;#ff1900&quot; style=&quot;font-size: 14px;&quot;&gt;.52&lt;/font&gt;&lt;/b&gt;" style="edgeLabel;html=1;align=center;verticalAlign=middle;resizable=0;points=[];" parent="LC1GmWus9uCB8fRLl5EC-89" vertex="1" connectable="0">
          <mxGeometry x="-0.7868" relative="1" as="geometry">
            <mxPoint x="18" y="19" as="offset" />
          </mxGeometry>
        </mxCell>
        <mxCell id="LC1GmWus9uCB8fRLl5EC-91" style="rounded=0;orthogonalLoop=1;jettySize=auto;html=1;strokeColor=default;endArrow=none;endFill=0;endSize=6;strokeWidth=2;exitX=0.105;exitY=0.682;exitDx=0;exitDy=0;exitPerimeter=0;" parent="1" source="LC1GmWus9uCB8fRLl5EC-101" target="LC1GmWus9uCB8fRLl5EC-109" edge="1">
          <mxGeometry relative="1" as="geometry">
            <mxPoint x="-823.6032" y="-609.9755999999999" as="targetPoint" />
          </mxGeometry>
        </mxCell>
        <mxCell id="LC1GmWus9uCB8fRLl5EC-94" style="rounded=0;orthogonalLoop=1;jettySize=auto;html=1;strokeColor=default;endArrow=none;endFill=0;endSize=6;strokeWidth=2;exitX=0.422;exitY=0.905;exitDx=0;exitDy=0;exitPerimeter=0;entryX=0.5;entryY=0;entryDx=0;entryDy=0;entryPerimeter=0;" parent="1" source="LC1GmWus9uCB8fRLl5EC-116" target="LC1GmWus9uCB8fRLl5EC-109" edge="1">
          <mxGeometry relative="1" as="geometry">
            <mxPoint x="-751.5" y="-477.59999999999997" as="targetPoint" />
            <mxPoint x="-684.0999999999999" y="-403.62080000000014" as="sourcePoint" />
          </mxGeometry>
        </mxCell>
        <mxCell id="LC1GmWus9uCB8fRLl5EC-96" style="rounded=0;orthogonalLoop=1;jettySize=auto;html=1;strokeColor=default;endArrow=none;endFill=0;endSize=6;strokeWidth=2;exitX=0.911;exitY=0.552;exitDx=0;exitDy=0;exitPerimeter=0;" parent="1" source="LC1GmWus9uCB8fRLl5EC-122" target="LC1GmWus9uCB8fRLl5EC-109" edge="1">
          <mxGeometry relative="1" as="geometry">
            <mxPoint x="-861" y="-540" as="targetPoint" />
            <mxPoint x="-949.925" y="-557.2000000000003" as="sourcePoint" />
          </mxGeometry>
        </mxCell>
        <mxCell id="LC1GmWus9uCB8fRLl5EC-97" style="rounded=0;orthogonalLoop=1;jettySize=auto;html=1;strokeColor=default;endArrow=none;endFill=0;strokeWidth=2;exitX=0.13;exitY=0.77;exitDx=0;exitDy=0;exitPerimeter=0;entryX=0.88;entryY=0.07;entryDx=0;entryDy=0;entryPerimeter=0;" parent="1" source="LC1GmWus9uCB8fRLl5EC-107" target="LC1GmWus9uCB8fRLl5EC-109" edge="1">
          <mxGeometry relative="1" as="geometry">
            <mxPoint x="-773.3292000000001" y="-513.9599999999997" as="targetPoint" />
          </mxGeometry>
        </mxCell>
        <mxCell id="LC1GmWus9uCB8fRLl5EC-98" style="rounded=0;orthogonalLoop=1;jettySize=auto;html=1;strokeColor=default;endArrow=none;endFill=0;endSize=6;strokeWidth=2;entryX=0.12;entryY=0.07;entryDx=0;entryDy=0;entryPerimeter=0;exitX=0.669;exitY=0.914;exitDx=0;exitDy=0;exitPerimeter=0;startArrow=none;startFill=0;shadow=0;" parent="1" source="LC1GmWus9uCB8fRLl5EC-117" target="LC1GmWus9uCB8fRLl5EC-109" edge="1">
          <mxGeometry relative="1" as="geometry">
            <mxPoint x="-859.2360000000003" y="-495.72239999999977" as="targetPoint" />
            <mxPoint x="-956.8" y="-448.5999999999999" as="sourcePoint" />
          </mxGeometry>
        </mxCell>
        <mxCell id="LC1GmWus9uCB8fRLl5EC-99" style="rounded=0;orthogonalLoop=1;jettySize=auto;html=1;strokeColor=default;endArrow=none;endFill=0;endSize=6;strokeWidth=2;exitX=0.4;exitY=0.1;exitDx=0;exitDy=0;exitPerimeter=0;" parent="1" source="LC1GmWus9uCB8fRLl5EC-118" target="LC1GmWus9uCB8fRLl5EC-109" edge="1">
          <mxGeometry relative="1" as="geometry">
            <mxPoint x="-859.7651999999998" y="-469.43879999999996" as="targetPoint" />
            <mxPoint x="-893.8200000000002" y="-397.06640000000016" as="sourcePoint" />
          </mxGeometry>
        </mxCell>
        <mxCell id="LC1GmWus9uCB8fRLl5EC-100" value="Wi-Fi&lt;br&gt;&lt;font color=&quot;#0000ff&quot;&gt;VLAN 20&lt;br&gt;[8/17-19&lt;/font&gt;&lt;font color=&quot;#3399ff&quot;&gt;]&lt;/font&gt;" style="ellipse;shape=cloud;whiteSpace=wrap;html=1;rounded=0;shadow=0;comic=0;strokeWidth=2;fontFamily=Verdana;fontSize=12;" parent="1" vertex="1">
          <mxGeometry x="-650.0000000000001" y="-511.65" width="120" height="80" as="geometry" />
        </mxCell>
        <mxCell id="LC1GmWus9uCB8fRLl5EC-105" value="Seguretat&lt;br&gt;&lt;font color=&quot;#0000ff&quot;&gt;VLAN 19&lt;br&gt;[8/14-15]&lt;/font&gt;" style="ellipse;shape=cloud;whiteSpace=wrap;html=1;rounded=0;shadow=0;comic=0;strokeWidth=2;fontFamily=Verdana;fontSize=12;" parent="1" vertex="1">
          <mxGeometry x="-623" y="-586.8" width="130" height="83.4" as="geometry" />
        </mxCell>
        <mxCell id="LC1GmWus9uCB8fRLl5EC-107" value="Demostració&lt;font color=&quot;#ff0505&quot;&gt;&lt;br&gt;10.20.60.128/25&lt;/font&gt;&lt;br&gt;&lt;font color=&quot;#0000ff&quot;&gt;VLAN 17&lt;br&gt;[8/11]&lt;/font&gt;" style="ellipse;shape=cloud;whiteSpace=wrap;html=1;rounded=0;shadow=0;comic=0;strokeWidth=2;fontFamily=Verdana;fontSize=12;" parent="1" vertex="1">
          <mxGeometry x="-696" y="-763.3" width="166" height="93.3" as="geometry" />
        </mxCell>
        <mxCell id="LC1GmWus9uCB8fRLl5EC-109" value="&lt;font style=&quot;font-size: 17px;&quot;&gt;&lt;b&gt;&amp;nbsp; &amp;nbsp; &amp;nbsp; &amp;nbsp; &amp;nbsp; &amp;nbsp; R-P3&lt;/b&gt;&lt;/font&gt;" style="shape=mxgraph.cisco.switches.mgx_8000_multiservice_switch;sketch=0;html=1;pointerEvents=1;dashed=0;fillColor=#036897;strokeColor=#ffffff;strokeWidth=2;verticalLabelPosition=bottom;verticalAlign=top;align=center;outlineConnect=0;" parent="1" vertex="1">
          <mxGeometry x="-869.8" y="-597.6" width="115.6" height="130" as="geometry" />
        </mxCell>
        <mxCell id="LC1GmWus9uCB8fRLl5EC-112" style="rounded=0;orthogonalLoop=1;jettySize=auto;html=1;endArrow=none;endFill=0;strokeWidth=3;endSize=7;exitX=0.8;exitY=0.8;exitDx=0;exitDy=0;exitPerimeter=0;entryX=0.5;entryY=0;entryDx=0;entryDy=0;entryPerimeter=0;" parent="1" source="LC1GmWus9uCB8fRLl5EC-11" target="LC1GmWus9uCB8fRLl5EC-10" edge="1">
          <mxGeometry relative="1" as="geometry">
            <mxPoint x="-780" y="321.24" as="sourcePoint" />
            <mxPoint x="-382.6478000000002" y="316.49559999999997" as="targetPoint" />
          </mxGeometry>
        </mxCell>
        <mxCell id="LC1GmWus9uCB8fRLl5EC-113" value="&lt;b&gt;&lt;font color=&quot;#ff1900&quot; style=&quot;font-size: 14px;&quot;&gt;.54&lt;/font&gt;&lt;/b&gt;" style="edgeLabel;html=1;align=center;verticalAlign=middle;resizable=0;points=[];" parent="LC1GmWus9uCB8fRLl5EC-112" vertex="1" connectable="0">
          <mxGeometry x="-0.7868" relative="1" as="geometry">
            <mxPoint x="20" y="-2" as="offset" />
          </mxGeometry>
        </mxCell>
        <mxCell id="LC1GmWus9uCB8fRLl5EC-114" value="Magatzem&lt;br&gt;&lt;font color=&quot;#0000ff&quot;&gt;VLAN 13&lt;br&gt;[8/3-8]&lt;/font&gt;" style="ellipse;shape=cloud;whiteSpace=wrap;html=1;rounded=0;shadow=0;comic=0;strokeWidth=2;fontFamily=Verdana;fontSize=12;" parent="1" vertex="1">
          <mxGeometry x="-1345" y="533.4000000000001" width="120" height="80" as="geometry" />
        </mxCell>
        <mxCell id="LC1GmWus9uCB8fRLl5EC-117" value="Servei tècnic&lt;font color=&quot;#ff0505&quot;&gt;&lt;br&gt;10.20.61.160/27&lt;/font&gt;&lt;br&gt;&lt;font color=&quot;#0000ff&quot;&gt;VLAN 15&lt;br&gt;[-]&lt;/font&gt;" style="ellipse;shape=cloud;whiteSpace=wrap;html=1;rounded=0;shadow=0;comic=0;strokeWidth=2;fontFamily=Verdana;fontSize=12;" parent="1" vertex="1">
          <mxGeometry x="-1003.8" y="-779.9999999999999" width="166" height="93.3" as="geometry" />
        </mxCell>
        <mxCell id="LC1GmWus9uCB8fRLl5EC-118" value="Punt a punt&lt;font color=&quot;#ff0505&quot;&gt;&lt;br&gt;192.168.150.16/28&lt;/font&gt;&lt;br&gt;&lt;font color=&quot;#0000ff&quot;&gt;VLAN 23&lt;br&gt;[8/18]&lt;/font&gt;" style="ellipse;shape=cloud;whiteSpace=wrap;html=1;rounded=0;shadow=0;comic=0;strokeWidth=2;fontFamily=Verdana;fontSize=12;" parent="1" vertex="1">
          <mxGeometry x="-756.9999999999999" y="-450" width="166" height="93.3" as="geometry" />
        </mxCell>
        <mxCell id="LC1GmWus9uCB8fRLl5EC-119" value="Post-venda&lt;font color=&quot;#ff0505&quot;&gt;&lt;br&gt;10.20.61.128/27&lt;/font&gt;&lt;br&gt;&lt;font color=&quot;#0000ff&quot;&gt;VLAN 14&lt;br&gt;[8/9-10]&lt;/font&gt;" style="ellipse;shape=cloud;whiteSpace=wrap;html=1;rounded=0;shadow=0;comic=0;strokeWidth=2;fontFamily=Verdana;fontSize=12;" parent="1" vertex="1">
          <mxGeometry x="-1136" y="-716.7" width="166" height="93.3" as="geometry" />
        </mxCell>
        <mxCell id="LC1GmWus9uCB8fRLl5EC-121" style="rounded=0;orthogonalLoop=1;jettySize=auto;html=1;strokeColor=default;endArrow=none;endFill=0;endSize=6;strokeWidth=2;exitX=0.8;exitY=0.8;exitDx=0;exitDy=0;exitPerimeter=0;" parent="1" source="LC1GmWus9uCB8fRLl5EC-119" target="LC1GmWus9uCB8fRLl5EC-109" edge="1">
          <mxGeometry relative="1" as="geometry">
            <mxPoint x="-715.7074000000002" y="-535.0431999999997" as="targetPoint" />
            <mxPoint x="-634.29" y="-660" as="sourcePoint" />
          </mxGeometry>
        </mxCell>
        <mxCell id="LC1GmWus9uCB8fRLl5EC-122" value="Magatzem&lt;font color=&quot;#ff0505&quot;&gt;&lt;br&gt;10.20.61.64/26&lt;/font&gt;&lt;br&gt;&lt;font color=&quot;#0000ff&quot;&gt;VLAN 13&lt;br&gt;[8/8]&lt;/font&gt;" style="ellipse;shape=cloud;whiteSpace=wrap;html=1;rounded=0;shadow=0;comic=0;strokeWidth=2;fontFamily=Verdana;fontSize=12;" parent="1" vertex="1">
          <mxGeometry x="-1150" y="-620" width="166" height="93.3" as="geometry" />
        </mxCell>
        <mxCell id="LC1GmWus9uCB8fRLl5EC-123" value="Administració&lt;font color=&quot;#ff0505&quot;&gt;&lt;br&gt;10.20.61.192/28&lt;/font&gt;&lt;br&gt;&lt;font color=&quot;#0000ff&quot;&gt;VLAN 11&lt;br&gt;[8/4-5&lt;/font&gt;&lt;font color=&quot;#3399ff&quot;&gt;]&lt;/font&gt;" style="ellipse;shape=cloud;whiteSpace=wrap;html=1;rounded=0;shadow=0;comic=0;strokeWidth=2;fontFamily=Verdana;fontSize=12;" parent="1" vertex="1">
          <mxGeometry x="-1000" y="-439.99999999999994" width="166" height="93.3" as="geometry" />
        </mxCell>
        <mxCell id="LC1GmWus9uCB8fRLl5EC-124" value="Atenció al&lt;br&gt;client&lt;font color=&quot;#ff0505&quot;&gt;&lt;br&gt;10.20.61.0/26&lt;/font&gt;&lt;br&gt;&lt;font color=&quot;#0000ff&quot;&gt;VLAN 12&lt;br&gt;[8/6-7]&lt;/font&gt;" style="ellipse;shape=cloud;whiteSpace=wrap;html=1;rounded=0;shadow=0;comic=0;strokeWidth=2;fontFamily=Verdana;fontSize=12;" parent="1" vertex="1">
          <mxGeometry x="-1120" y="-523.3" width="172" height="103.3" as="geometry" />
        </mxCell>
        <mxCell id="LC1GmWus9uCB8fRLl5EC-125" style="rounded=0;orthogonalLoop=1;jettySize=auto;html=1;strokeColor=default;endArrow=none;endFill=0;endSize=6;strokeWidth=2;exitX=0.914;exitY=0.331;exitDx=0;exitDy=0;exitPerimeter=0;" parent="1" source="LC1GmWus9uCB8fRLl5EC-124" target="LC1GmWus9uCB8fRLl5EC-109" edge="1">
          <mxGeometry relative="1" as="geometry">
            <mxPoint x="-744" y="-561" as="targetPoint" />
            <mxPoint x="-651" y="-623" as="sourcePoint" />
          </mxGeometry>
        </mxCell>
        <mxCell id="LC1GmWus9uCB8fRLl5EC-126" style="rounded=0;orthogonalLoop=1;jettySize=auto;html=1;strokeColor=default;endArrow=none;endFill=0;endSize=6;strokeWidth=2;exitX=0.562;exitY=0.147;exitDx=0;exitDy=0;exitPerimeter=0;entryX=0.12;entryY=0.93;entryDx=0;entryDy=0;entryPerimeter=0;" parent="1" source="LC1GmWus9uCB8fRLl5EC-123" target="LC1GmWus9uCB8fRLl5EC-109" edge="1">
          <mxGeometry relative="1" as="geometry">
            <mxPoint x="-733" y="-518" as="targetPoint" />
            <mxPoint x="-640" y="-580" as="sourcePoint" />
          </mxGeometry>
        </mxCell>
        <mxCell id="LC1GmWus9uCB8fRLl5EC-127" value="" style="rounded=0;orthogonalLoop=1;jettySize=auto;html=1;strokeColor=default;endArrow=none;endFill=0;endSize=6;strokeWidth=2;entryX=1;entryY=0.5;entryDx=0;entryDy=0;entryPerimeter=0;exitX=0.16;exitY=0.55;exitDx=0;exitDy=0;exitPerimeter=0;" parent="1" source="LC1GmWus9uCB8fRLl5EC-105" target="LC1GmWus9uCB8fRLl5EC-109" edge="1">
          <mxGeometry relative="1" as="geometry">
            <mxPoint x="-856" y="-588" as="targetPoint" />
            <mxPoint x="-705" y="-832" as="sourcePoint" />
          </mxGeometry>
        </mxCell>
        <mxCell id="LC1GmWus9uCB8fRLl5EC-116" value="Vendes&lt;font color=&quot;#ff0505&quot;&gt;&lt;br&gt;10.20.60.0/25&lt;/font&gt;&lt;br&gt;&lt;font color=&quot;#0000ff&quot;&gt;VLAN 16&lt;br&gt;[-]&lt;/font&gt;" style="ellipse;shape=cloud;whiteSpace=wrap;html=1;rounded=0;shadow=0;comic=0;strokeWidth=2;fontFamily=Verdana;fontSize=12;" parent="1" vertex="1">
          <mxGeometry x="-851.8000000000001" y="-790" width="166" height="93.3" as="geometry" />
        </mxCell>
        <mxCell id="LC1GmWus9uCB8fRLl5EC-128" value="" style="rounded=0;orthogonalLoop=1;jettySize=auto;html=1;strokeColor=default;endArrow=none;endFill=0;endSize=6;strokeWidth=2;exitX=0.07;exitY=0.4;exitDx=0;exitDy=0;exitPerimeter=0;" parent="1" source="LC1GmWus9uCB8fRLl5EC-100" target="LC1GmWus9uCB8fRLl5EC-109" edge="1">
          <mxGeometry relative="1" as="geometry">
            <mxPoint x="-812" y="-598" as="targetPoint" />
            <mxPoint x="-443" y="-601" as="sourcePoint" />
          </mxGeometry>
        </mxCell>
        <mxCell id="LC1GmWus9uCB8fRLl5EC-101" value="Climatització&lt;br style=&quot;border-color: var(--border-color);&quot;&gt;&lt;font color=&quot;#0000ff&quot; style=&quot;border-color: var(--border-color);&quot;&gt;VLAN 18&lt;br style=&quot;border-color: var(--border-color);&quot;&gt;[2/9-12]&lt;/font&gt;" style="ellipse;shape=cloud;whiteSpace=wrap;html=1;rounded=0;shadow=0;comic=0;strokeWidth=2;fontFamily=Verdana;fontSize=12;" parent="1" vertex="1">
          <mxGeometry x="-627" y="-670" width="138" height="83.2" as="geometry" />
        </mxCell>
        <mxCell id="LC1GmWus9uCB8fRLl5EC-130" value="&lt;b&gt;&lt;font style=&quot;font-size: 12px;&quot; color=&quot;#ff1900&quot;&gt;.193&lt;/font&gt;&lt;/b&gt;" style="edgeLabel;html=1;align=center;verticalAlign=middle;resizable=0;points=[];fillColor=#FF4AE1;" parent="1" vertex="1" connectable="0">
          <mxGeometry x="-910.0007871507005" y="-440.0040989667157" as="geometry">
            <mxPoint x="-5" y="-1" as="offset" />
          </mxGeometry>
        </mxCell>
        <mxCell id="LC1GmWus9uCB8fRLl5EC-131" value="&lt;b&gt;&lt;font style=&quot;font-size: 12px;&quot; color=&quot;#ff1900&quot;&gt;.1&lt;/font&gt;&lt;/b&gt;" style="edgeLabel;html=1;align=center;verticalAlign=middle;resizable=0;points=[];fillColor=#FF4AE1;" parent="1" vertex="1" connectable="0">
          <mxGeometry x="-948.0007871507005" y="-505" as="geometry">
            <mxPoint x="-7" y="1" as="offset" />
          </mxGeometry>
        </mxCell>
        <mxCell id="LC1GmWus9uCB8fRLl5EC-132" value="&lt;b&gt;&lt;font style=&quot;font-size: 12px;&quot; color=&quot;#ff1900&quot;&gt;.65&lt;/font&gt;&lt;/b&gt;" style="edgeLabel;html=1;align=center;verticalAlign=middle;resizable=0;points=[];fillColor=#FF4AE1;" parent="1" vertex="1" connectable="0">
          <mxGeometry x="-980.0007871507005" y="-580" as="geometry">
            <mxPoint x="-7" y="1" as="offset" />
          </mxGeometry>
        </mxCell>
        <mxCell id="LC1GmWus9uCB8fRLl5EC-133" value="&lt;b&gt;&lt;font style=&quot;font-size: 12px;&quot; color=&quot;#ff1900&quot;&gt;.129&lt;/font&gt;&lt;/b&gt;" style="edgeLabel;html=1;align=center;verticalAlign=middle;resizable=0;points=[];fillColor=#FF4AE1;" parent="1" vertex="1" connectable="0">
          <mxGeometry x="-957.9007871507005" y="-640" as="geometry">
            <mxPoint x="-7" y="1" as="offset" />
          </mxGeometry>
        </mxCell>
        <mxCell id="LC1GmWus9uCB8fRLl5EC-134" value="&lt;b&gt;&lt;font style=&quot;font-size: 12px;&quot; color=&quot;#ff1900&quot;&gt;.161&lt;/font&gt;&lt;/b&gt;" style="edgeLabel;html=1;align=center;verticalAlign=middle;resizable=0;points=[];fillColor=#FF4AE1;" parent="1" vertex="1" connectable="0">
          <mxGeometry x="-868" y="-689" as="geometry">
            <mxPoint x="-7" y="1" as="offset" />
          </mxGeometry>
        </mxCell>
        <mxCell id="LC1GmWus9uCB8fRLl5EC-135" value="&lt;b&gt;&lt;font style=&quot;font-size: 12px;&quot; color=&quot;#ff1900&quot;&gt;.1&lt;/font&gt;&lt;/b&gt;" style="edgeLabel;html=1;align=center;verticalAlign=middle;resizable=0;points=[];fillColor=#FF4AE1;" parent="1" vertex="1" connectable="0">
          <mxGeometry x="-765" y="-694" as="geometry">
            <mxPoint x="-7" y="1" as="offset" />
          </mxGeometry>
        </mxCell>
        <mxCell id="LC1GmWus9uCB8fRLl5EC-136" value="&lt;b&gt;&lt;font style=&quot;font-size: 12px;&quot; color=&quot;#ff1900&quot;&gt;.129&lt;/font&gt;&lt;/b&gt;" style="edgeLabel;html=1;align=center;verticalAlign=middle;resizable=0;points=[];fillColor=#FF4AE1;" parent="1" vertex="1" connectable="0">
          <mxGeometry x="-660.0007871507005" y="-680" as="geometry">
            <mxPoint x="-7" y="1" as="offset" />
          </mxGeometry>
        </mxCell>
        <mxCell id="LC1GmWus9uCB8fRLl5EC-137" value="&lt;b&gt;&lt;font style=&quot;font-size: 12px;&quot; color=&quot;#ff1900&quot;&gt;.26&lt;/font&gt;&lt;/b&gt;" style="edgeLabel;html=1;align=center;verticalAlign=middle;resizable=0;points=[];fillColor=#FF4AE1;" parent="1" vertex="1" connectable="0">
          <mxGeometry x="-676.0007871507005" y="-451" as="geometry">
            <mxPoint x="-7" y="1" as="offset" />
          </mxGeometry>
        </mxCell>
        <mxCell id="2Bc7QR4cXnI9qkTJAo_G-1" value="&lt;span&gt;&lt;font style=&quot;font-size: 12px;&quot; color=&quot;#ff1900&quot;&gt;.17&lt;/font&gt;&lt;/span&gt;" style="edgeLabel;html=1;align=center;verticalAlign=middle;resizable=0;points=[];fillColor=#FF4AE1;fontStyle=1" parent="1" vertex="1" connectable="0">
          <mxGeometry x="-670" y="-346.7" as="geometry">
            <mxPoint x="457" y="634" as="offset" />
          </mxGeometry>
        </mxCell>
        <mxCell id="2MB21W6MqH4E-HEX_MW0-1" value="Internet&lt;br&gt;&lt;font color=&quot;#0000ff&quot;&gt;VLAN 22&lt;br&gt;&lt;/font&gt;&lt;font color=&quot;#ff0505&quot;&gt;192.168.120.21/29&lt;/font&gt;&lt;br&gt;&lt;font color=&quot;#0000ff&quot;&gt;[2/20]&lt;/font&gt;" style="ellipse;shape=cloud;whiteSpace=wrap;html=1;rounded=0;shadow=0;comic=0;strokeWidth=2;fontFamily=Verdana;fontSize=12;" vertex="1" parent="1">
          <mxGeometry x="-290" y="295.9" width="180" height="115.7" as="geometry" />
        </mxCell>
        <mxCell id="2MB21W6MqH4E-HEX_MW0-2" style="rounded=0;orthogonalLoop=1;jettySize=auto;html=1;strokeColor=default;endArrow=none;endFill=0;endSize=6;strokeWidth=2;exitX=0.25;exitY=0.25;exitDx=0;exitDy=0;exitPerimeter=0;" edge="1" parent="1" source="LC1GmWus9uCB8fRLl5EC-81" target="LC1GmWus9uCB8fRLl5EC-88">
          <mxGeometry relative="1" as="geometry">
            <mxPoint x="-217.5" y="200" as="targetPoint" />
            <mxPoint x="-182.5" y="286" as="sourcePoint" />
          </mxGeometry>
        </mxCell>
        <mxCell id="2MB21W6MqH4E-HEX_MW0-5" value="&lt;b&gt;&lt;font style=&quot;font-size: 12px;&quot; color=&quot;#ff1900&quot;&gt;.45&lt;/font&gt;&lt;/b&gt;" style="edgeLabel;html=1;align=center;verticalAlign=middle;resizable=0;points=[];fillColor=#FF4AE1;" vertex="1" connectable="0" parent="1">
          <mxGeometry x="-178" y="233" as="geometry">
            <mxPoint x="16" y="-11" as="offset" />
          </mxGeometry>
        </mxCell>
      </root>
    </mxGraphModel>
  </diagram>
</mxfile>
